<!--?xml version="1.0" encoding="utf-8"?-->
<!-- Generator: Adobe Illustrator 18.1.1, SVG Export Plug-In . SVG Version: 6.00 Build 0)  -->

<svg version="1.1" id="_x32_" xmlns="http://www.w3.org/2000/svg" xmlns:xlink="http://www.w3.org/1999/xlink" x="0px" y="0px" viewBox="0 0 512 512" style="width: 256px; height: 256px; opacity: 1;" xml:space="preserve">
<style type="text/css">
	.st0{fill:#4B4B4B;}
</style>
<g>
	<path class="st0" d="M464.365,141.003c-28.265-28.282-65.147-44.873-104.758-47.306c1.94-9.521-1.168-19.559-8.485-26.26
		c-5.163-4.719-11.855-7.325-18.86-7.325c-4.506,0-9.028,1.11-13.023,3.223l-85.585,45.242
		c-9.192,4.827-14.914,14.322-14.881,24.756c0,10.391,5.755,19.888,15.012,24.697l85.437,45.168c3.98,2.105,8.502,3.24,13.04,3.24
		c6.972,0,13.648-2.59,18.81-7.285c7.137-6.528,10.277-16.146,8.715-25.363c18.186,2.27,35.007,10.466,48.194,23.637
		c15.637,15.638,24.254,36.454,24.254,58.578c0,22.107-8.617,42.924-24.27,58.594c-15.654,15.63-36.471,24.262-58.603,24.262
		l-21.524,0.008V360.4v36.685v21.54h21.54c43.474,0,84.302-16.92,115.001-47.644c30.699-30.675,47.635-71.511,47.619-114.977
		C512.016,212.529,495.08,171.693,464.365,141.003z M449.139,355.764c-25.47,25.486-60.839,41.321-99.726,41.321h-0.033V360.4
		c28.89-0.016,54.87-11.658,73.828-30.584c18.909-18.95,30.568-44.93,30.568-73.812c0-28.89-11.658-54.878-30.568-73.821
		c-18.958-18.925-44.939-30.568-73.828-30.584h-21.508l10.293,24.426c1.036,2.491,0.412,5.368-1.578,7.193
		c-1.217,1.102-2.762,1.678-4.324,1.678c-1.02,0-2.039-0.247-2.976-0.748l-85.569-45.234c-2.105-1.102-3.404-3.281-3.404-5.648
		c-0.017-2.36,1.299-4.547,3.404-5.641l85.552-45.242c0.954-0.493,1.973-0.732,2.993-0.732c1.578,0,3.107,0.568,4.324,1.677
		c1.99,1.817,2.615,4.694,1.562,7.194l-10.261,24.394h21.492h0.033c38.887,0,74.256,15.834,99.726,41.328
		c25.503,25.47,41.337,60.856,41.321,99.76C490.476,294.908,474.642,330.294,449.139,355.764z" style="fill: rgb(75, 75, 75);"></path>
	<path class="st0" d="M278.214,353.972l-85.437-45.161c-3.979-2.113-8.502-3.239-13.039-3.239c-6.972,0-13.648,2.582-18.811,7.276
		c-7.136,6.536-10.277,16.163-8.714,25.364c-18.186-2.269-35.008-10.466-48.195-23.637c-15.637-15.646-24.253-36.462-24.27-58.578
		c0.017-22.116,8.633-42.932,24.287-58.594c15.654-15.629,36.47-24.253,58.586-24.261l21.54-0.009V151.6v-36.684V93.383h-21.54
		h-0.033c-43.442,0-84.286,16.912-114.969,47.636C16.903,171.702-0.017,212.538,0,256.005
		c-0.017,43.459,16.903,84.294,47.635,115.002c28.265,28.282,65.147,44.864,104.757,47.298c-1.956,9.52,1.168,19.558,8.469,26.259
		c5.179,4.727,11.872,7.325,18.876,7.325c4.522,0,9.027-1.11,13.023-3.214l85.585-45.251c9.192-4.826,14.914-14.314,14.881-24.754
		C293.227,368.277,287.472,358.781,278.214,353.972z M268.283,384.383l-85.57,45.234c-0.937,0.493-1.956,0.732-2.976,0.732
		c-1.562,0-3.124-0.567-4.325-1.677c-1.989-1.817-2.614-4.694-1.562-7.185l10.26-24.401H162.62h-0.033
		c-38.888,0-74.273-15.835-99.726-41.321c-25.503-25.47-41.338-60.856-41.321-99.759c-0.017-38.904,15.818-74.29,41.321-99.76
		c25.47-25.494,60.838-41.328,99.726-41.328h0.033V151.6c-28.89,0.016-54.87,11.658-73.829,30.584
		c-18.925,18.942-30.567,44.93-30.567,73.821c0,28.882,11.642,54.862,30.567,73.812c18.959,18.926,44.939,30.568,73.829,30.584
		h21.508l-10.294-24.426c-1.036-2.491-0.411-5.368,1.578-7.194c1.217-1.102,2.762-1.677,4.325-1.677c1.02,0,2.039,0.247,2.976,0.748
		l85.57,45.244c2.104,1.093,3.404,3.272,3.404,5.64C271.703,381.102,270.388,383.281,268.283,384.383z" style="fill: rgb(75, 75, 75);"></path>
</g>
</svg>
