<!--?xml version="1.0" encoding="utf-8"?-->
<!-- Generator: Adobe Illustrator 18.1.1, SVG Export Plug-In . SVG Version: 6.00 Build 0)  -->

<svg version="1.1" id="_x32_" xmlns="http://www.w3.org/2000/svg" xmlns:xlink="http://www.w3.org/1999/xlink" x="0px" y="0px" viewBox="0 0 512 512" style="width: 32px; height: 32px; opacity: 1;" xml:space="preserve">
<style type="text/css">
	.st0{fill:#4B4B4B;}
</style>
<g>
	<path class="st0" d="M508.157,118.055c-4.773-17.082-14.156-34.14-30.252-50.795c-16.034-16.562-33.1-26.006-50.57-30.392
		c-17.462-4.346-35.537-3.586-53.395,1.389c-22.685,6.302-44.901,19.503-63.693,37.112c-18.829,17.602-34.172,39.558-43.481,62.802
		c-5.976,14.932-12.969,26.977-21.001,36.655c-8.017,9.678-17.12,16.872-26.768,21.994c-6.418,3.422-13.054,5.93-19.751,7.8
		c-8.692,2.406-17.505,3.756-26.314,4.664c-8.824,0.9-17.668,1.343-26.492,1.84c-17.679,0.985-35.284,2.242-52.642,7.078
		c-8.797,2.452-17.532,5.798-26.313,10.532c-23.586,12.743-40.088,28.335-50.943,45.727C5.72,291.845,0.408,311.185,0.023,332.016
		c-0.264,13.892,1.735,28.421,5.859,43.252c2.484,8.925,5.744,17.958,9.763,27.031c7.404,16.756,21.413,34.086,39.841,47.753
		c18.429,13.691,41.129,23.749,65.817,26.877c16.46,2.095,33.83,1.171,51.703-3.804c3.524-0.986,7.078-2.134,10.644-3.438
		c19.503-7.163,36.639-16.476,52.32-27.226c15.684-10.764,29.914-22.98,43.468-35.932c27.121-25.875,51.393-54.715,79.499-79.62
		c18.735-16.577,39.278-31.408,63.523-41.894c7.358-3.174,16.034-8.529,24.827-15.669c8.824-7.132,17.811-16.002,26.123-26.169
		c16.655-20.295,30.485-45.619,35.948-71.92C513.031,153.709,513.093,135.789,508.157,118.055z M58.524,293.382
		c1.646-0.45,3.571-0.66,5.786-0.893c2.616-0.295,5.596-0.613,8.56-1.435c2.969-0.822,5.67-2.088,8.079-3.205
		c2.01-0.939,3.76-1.747,5.402-2.204c4.334-1.218,7.388,0.52,8.592,4.851c2.422,8.692-4.859,18.339-16.24,21.513
		c-11.381,3.151-22.599-1.327-25.021-10.019C52.475,297.658,54.194,294.593,58.524,293.382z M66.573,378.659
		c-1.761,1.35-3.908,2.422-6.196,3.05c-2.833,0.8-5.802,0.954-8.84,0.505c-5.829-0.87-11.118-4.176-13.773-8.638
		c-2.688-4.362-2.572-9.499,0.381-13.729c1.044-1.513,2.364-3.096,4.246-3.624c1.862-0.52,3.403,0.171,4.668,0.938l0.838,0.528
		c1.704,1.102,4.036,2.584,6.931,3.027c2.526,0.381,5.095-0.031,7.342-0.411c0.896-0.148,1.731-0.28,2.48-0.358
		c1.691-0.171,3.849-0.171,5.568,1.312c1.335,1.156,2.042,2.933,2.142,5.417C72.533,371.332,70.422,375.694,66.573,378.659z
		 M101.214,438.029c-1.439,0.924-3.1,1.646-4.889,2.143c-3.407,0.954-7.152,1.039-10.807,0.233
		c-5.596-1.188-10.411-4.362-13.232-8.646c-2.774-4.175-3.318-9.065-1.482-13.396c1.028-2.468,2.453-3.904,4.315-4.431
		c2.615-0.722,5.111,0.66,7.742,2.126c2.099,1.156,4.477,2.484,7.295,3.096c2.852,0.636,5.642,0.396,8.106,0.194
		c0.838-0.077,1.619-0.132,2.32-0.163c1.751-0.062,3.951,0.078,5.581,1.677c1.276,1.234,1.882,3.026,1.851,5.471
		C107.954,431.084,105.486,435.337,101.214,438.029z M126.029,371.224c-0.617,0.24-1.234,0.442-1.851,0.604
		c-5.243,1.452-10.718,0.894-14.991-1.567c-3.465-1.987-5.89-5.068-6.845-8.685c-0.628-2.243-0.528-4.082,0.311-5.58
		c0.792-1.389,2.115-2.329,4.082-2.872c1.176-0.326,2.626-0.536,4.256-0.722c1.808-0.225,3.85-0.474,5.876-1.047
		c0.528-0.14,1.055-0.303,1.587-0.513c2.538-0.938,4.726-2.406,6.651-3.686c1.862-1.25,3.481-2.337,5.169-2.802
		c1.82-0.497,5.196-0.644,7.43,4.144c1.715,3.539,1.805,7.691,0.206,11.672C135.912,365.132,131.582,369.175,126.029,371.224z
		 M175.194,413.225c-1.323,5.402-5.274,10.245-10.838,13.256c-1.571,0.854-3.232,1.529-4.936,2.003
		c-3.508,0.962-7.047,1.086-10.248,0.302c-4.858-1.156-8.634-4.284-10.322-8.591c-0.912-2.298-0.955-4.207-0.148-5.852
		c1.16-2.352,3.656-3.206,5.902-3.834l3.834-1.017c1.556-0.442,3.597-1.055,5.596-2.142c2.51-1.366,4.594-3.205,6.43-4.835
		c2.057-1.816,3.834-3.392,5.875-3.958c1.878-0.528,4.64-0.372,7.062,3.33C175.559,405.061,176.208,409.113,175.194,413.225z
		 M189.673,333.118c-2.542,2.336-5.553,4.043-8.724,4.92c-1.688,0.474-3.364,0.706-5.021,0.691
		c-4.862-0.039-9.192-2.158-11.909-5.813c-1.514-2.057-2.057-3.92-1.661-5.728c0.632-2.879,3.364-4.346,6.255-5.906
		c2.041-1.086,4.334-2.329,6.329-4.168c1.998-1.832,3.438-4.067,4.699-6.038c0.574-0.876,1.086-1.668,1.602-2.36
		c0.807-1.101,2.126-2.646,4.125-3.205c1.455-0.411,3.76-0.396,6.329,2.042c3.376,3.143,5.052,7.52,4.699,12.278
		C196.044,324.666,193.607,329.509,189.673,333.118z M225.606,381.593c-2.658,2.289-5.77,3.981-8.987,4.873
		c-6.713,1.871-13.217,0.179-16.977-4.4c-1.583-1.94-2.216-3.787-1.878-5.658c0.559-3.112,3.523-4.827,6.973-6.83
		c2.115-1.226,4.524-2.608,6.682-4.478c2.158-1.848,3.908-4.004,5.433-5.914c2.262-2.794,4.055-5.021,6.55-5.697
		c2.352-0.66,4.583,0.202,6.651,2.538c2.5,2.832,3.718,6.666,3.439,10.78C233.106,372.225,230.231,377.619,225.606,381.593z
		 M239.451,284.473c-2.48,2.111-5.39,3.671-8.398,4.509c-6.461,1.808-12.716,0.28-16.729-4.067
		c-1.746-1.909-2.464-3.749-2.185-5.642c0.455-3.198,3.493-5.022,7.005-7.125c1.967-1.187,4.214-2.538,6.208-4.222
		c1.983-1.707,3.671-3.702,5.158-5.464c2.2-2.63,4.108-4.889,6.561-5.564c1.688-0.473,4.23-0.372,6.772,2.817
		C249.423,266.747,247.484,277.627,239.451,284.473z M280.948,333.149c-2.669,2.289-5.797,3.981-9.03,4.889
		c-6.651,1.855-12.922,0.311-16.798-4.114c-1.645-1.878-2.336-3.772-2.041-5.618c0.5-3.213,3.566-5.053,7.136-7.179
		c2.084-1.25,4.462-2.678,6.592-4.494c2.116-1.824,3.877-3.943,5.433-5.805c2.368-2.833,4.23-5.061,6.756-5.766
		c1.673-0.474,4.183-0.38,6.725,2.7C291.492,314.755,289.392,325.908,280.948,333.149z M294.402,243.371
		c-1.967,1.303-4.098,2.274-6.317,2.894c-7.49,2.08-14.816-0.116-18.708-5.627c-1.467-2.126-1.937-4.036-1.424-5.874
		c0.87-3.097,4.083-4.509,7.784-6.124c2.115-0.939,4.509-1.98,6.709-3.431c2.189-1.443,4.114-3.22,5.786-4.804
		c2.278-2.118,4.246-3.934,6.45-4.555c1.936-0.544,4.726-0.365,7.105,3.454C306.47,226.995,303.226,237.557,294.402,243.371z
		 M337.906,288.803c-2.216,1.482-4.606,2.6-7.09,3.275c-7.427,2.088-14.73,0.062-18.576-5.122c-1.482-2.026-1.994-3.982-1.54-5.821
		c0.822-3.213,4.198-4.78,8.102-6.635c2.189-1.04,4.657-2.188,6.962-3.741c2.267-1.514,4.261-3.361,6.038-4.983
		c2.484-2.258,4.64-4.229,6.958-4.889c1.629-0.442,4.742-0.582,7.194,3.5C350.416,272.031,346.877,282.742,337.906,288.803z
		 M364.657,196.883c-1.334,5.184-5.122,9.716-10.361,12.48c-1.381,0.722-2.84,1.303-4.361,1.715
		c-1.048,0.295-2.072,0.505-3.058,0.621c-2.375,0.249-4.672,0.117-6.868-0.396c-4.746-1.118-8.471-3.896-10.482-7.8
		c-1.132-2.174-1.365-4.066-0.722-5.782c0.869-2.328,3.128-3.414,4.742-4.042c1.172-0.443,2.554-0.838,4.078-1.265l1.334-0.381
		c1.723-0.481,3.508-1.024,5.231-1.932c2.406-1.265,4.377-2.996,6.124-4.509c1.955-1.708,3.64-3.19,5.595-3.734
		c1.893-0.528,4.656-0.349,7.062,3.454C365.147,188.61,365.744,192.723,364.657,196.883z M360.459,110.054
		c-1.731-1.739-2.522-3.539-2.375-5.41c0.264-3.314,3.197-5.432,6.9-8.118c2.142-1.544,4.578-3.306,6.744-5.479
		c2.172-2.188,3.919-4.625,5.448-6.783c2.375-3.345,4.268-5.991,7.032-6.752c2.22-0.621,4.377,0.101,6.441,2.142
		c3.221,3.221,4.556,7.846,3.749,13.054c-0.761,4.874-3.321,9.74-7.257,13.675c-3.29,3.314-7.21,5.665-11.323,6.822
		C369.772,114.897,364.176,113.741,360.459,110.054z M412.472,244.589c-1.746,4.641-5.533,8.755-10.384,11.292
		c-1.498,0.807-3.096,1.443-4.726,1.894c-3.594,1.002-7.225,1.086-10.5,0.248c-4.843-1.202-8.576-4.376-10.221-8.708
		c-0.878-2.29-0.908-4.198-0.086-5.828c1.102-2.189,3.337-3.065,5.596-3.702c0.66-0.171,1.397-0.365,2.158-0.543
		c0.808-0.187,1.676-0.412,2.554-0.644c2.041-0.574,3.655-1.203,5.099-1.956c2.569-1.35,4.641-3.182,6.472-4.812
		c2.002-1.777,3.734-3.306,5.727-3.864c1.863-0.528,4.595-0.38,7.048,3.275C413.753,235.043,414.219,239.917,412.472,244.589z
		 M412.985,164.924c-2.716,2.863-6.046,4.889-9.616,5.89c-6.092,1.692-12.185,0.116-15.886-4.122
		c-1.692-1.886-2.414-3.717-2.158-5.557c0.396-2.964,2.934-4.625,5.898-6.565c1.956-1.258,4.145-2.686,6.008-4.634
		c1.894-1.987,3.205-4.261,4.361-6.27c1.645-2.848,3.058-5.317,5.696-6.054c2.895-0.807,5.332,1.118,6.124,1.746
		c3.57,2.825,5.548,7.226,5.433,12.076C418.728,156.216,416.602,161.136,412.985,164.924z M428.949,113.515
		c-2.351-0.954-3.802-2.243-4.416-3.966c-0.946-2.654,0.42-5.153,1.878-7.776c1.087-1.987,2.305-4.206,2.833-6.83
		c0.528-2.662,0.217-5.27-0.078-7.567c-0.085-0.76-0.171-1.451-0.233-2.08c-0.295-3.788,1.149-6.155,4.261-7.024
		c0.744-0.202,1.583-0.319,2.584-0.365c4.741-0.163,9.104,2.057,11.936,6.076c2.879,4.044,3.966,9.74,2.848,15.242
		c-1.102,5.479-4.136,10.175-8.366,12.883c-1.327,0.862-2.747,1.513-4.214,1.909C434.956,114.866,431.843,114.695,428.949,113.515z
		 M461.886,206.087c-2.995,3.733-6.993,6.433-11.23,7.606c-0.574,0.179-1.148,0.295-1.723,0.412
		c-4.92,0.854-9.615-0.474-12.906-3.671c-1.808-1.731-2.63-3.493-2.522-5.348c0.156-3.019,2.639-4.959,5.502-7.179
		c1.941-1.513,4.144-3.213,5.945-5.464c1.823-2.258,3.011-4.773,4.075-6.97c1.552-3.267,2.886-6.084,5.796-6.892
		c1.778-0.496,3.672-0.062,5.767,1.32c3.834,2.514,6.154,6.814,6.364,11.812C467.156,196.588,465.309,201.826,461.886,206.087z
		 M495.995,135.308c-1.024,5.534-3.904,10.416-7.924,13.396c-1.606,1.202-3.352,2.064-5.169,2.584
		c-2.678,0.73-5.464,0.675-8.063-0.21c-2.368-0.792-3.881-1.995-4.594-3.687c-1.149-2.716,0.186-5.518,1.598-8.482
		c1.056-2.189,2.228-4.672,2.764-7.505c0.528-2.864,0.264-5.642,0.039-8.094c-0.086-0.97-0.179-1.863-0.202-2.654
		c-0.062-1.467-0.225-5.906,4.316-7.171c0.822-0.233,1.746-0.349,2.832-0.334c4.688,0.07,8.941,2.522,11.688,6.753
		C496.026,124.133,497.028,129.759,495.995,135.308z" style="fill: rgb(75, 75, 75);"></path>
</g>
</svg>
