<!--?xml version="1.0" encoding="utf-8"?-->
<!-- Generator: Adobe Illustrator 18.1.1, SVG Export Plug-In . SVG Version: 6.00 Build 0)  -->

<svg version="1.1" id="_x32_" xmlns="http://www.w3.org/2000/svg" xmlns:xlink="http://www.w3.org/1999/xlink" x="0px" y="0px" viewBox="0 0 512 512" style="width: 32px; height: 32px; opacity: 1;" xml:space="preserve">
<style type="text/css">
	.st0{fill:#4B4B4B;}
</style>
<g>
	<path class="st0" d="M255.991,0C112.041,0,51.673,125.376,51.673,204.328c0,78.933,0,97.526,0,120.766
		c0,23.212,37.161,74.294,74.293,51.072c0,0,0,52.244,0,66.179c0,13.925,27.866,69.655,130.025,69.655
		c102.173,0,130.034-55.73,130.034-69.655c0-13.935,0-66.179,0-66.179c37.137,23.222,74.303-27.861,74.303-51.072
		c0-23.24,0-41.833,0-120.766C460.327,125.376,399.945,0,255.991,0z M197.658,464.386h-18.179c-7.274,0-13.168-5.885-13.168-13.163
		v-28.632h31.347V464.386z M197.658,409.827h-31.347v-28.613c0-7.279,5.894-13.182,13.168-13.182h18.179V409.827z M174.729,286.393
		c-28.846,0-52.24-23.406-52.24-52.262c0-28.836,23.394-52.235,52.24-52.235c28.856,0,52.239,23.398,52.239,52.235
		C226.968,262.987,203.585,286.393,174.729,286.393z M246.997,464.386h-31.342v-41.795h31.342V464.386z M246.997,409.827h-31.342
		v-41.795h31.342V409.827z M255.991,320.687c-7.172,30.528-37.71,12.578-28.72-1.794l28.72-44.89l28.744,44.89
		C293.709,333.265,263.181,351.215,255.991,320.687z M296.34,464.386h-31.351v-41.795h31.351V464.386z M296.34,409.827h-31.351
		v-41.795h31.351V409.827z M345.675,451.223c0,7.278-5.885,13.163-13.163,13.163h-18.184v-41.795h31.347V451.223z M345.675,409.827
		h-31.347v-41.795h18.184c7.278,0,13.163,5.903,13.163,13.182V409.827z M337.266,286.393c-28.859,0-52.239-23.406-52.239-52.262
		c0-28.836,23.38-52.235,52.239-52.235c28.841,0,52.23,23.398,52.23,52.235C389.496,262.987,366.107,286.393,337.266,286.393z" style="fill: rgb(75, 75, 75);"></path>
</g>
</svg>
