<!--?xml version="1.0" encoding="utf-8"?-->
<!-- Generator: Adobe Illustrator 18.1.1, SVG Export Plug-In . SVG Version: 6.00 Build 0)  -->

<svg version="1.1" id="_x32_" xmlns="http://www.w3.org/2000/svg" xmlns:xlink="http://www.w3.org/1999/xlink" x="0px" y="0px" viewBox="0 0 512 512" style="width: 32px; height: 32px; opacity: 1;" xml:space="preserve">
<style type="text/css">
	.st0{fill:#4B4B4B;}
</style>
<g>
	<path class="st0" d="M489.64,185.77c-9.838-15.018-23.263-27.458-39.078-36.108c0.297-3.438,0.469-6.916,0.469-10.432
		c0-16.276-3.306-31.834-9.284-45.962c-8.97-21.215-23.926-39.219-42.766-51.948c-18.832-12.729-41.61-20.176-66.029-20.176
		c-14.495,0-28.419,2.626-41.266,7.424c-10.526-8.26-22.317-15.003-35.046-19.848C241.833,3.086,225.752,0,208.998,0
		c-17.074,0-33.46,3.211-48.502,9.056c-22.575,8.783-42.157,23.474-56.871,42.196C90.1,68.458,80.699,89.118,76.925,111.662
		c-20.535,10.01-37.992,25.279-50.619,44.095c-13.729,20.457-21.755,45.134-21.747,71.6c-0.008,17.73,3.602,34.679,10.112,50.08
		c9.768,23.098,26.076,42.72,46.603,56.59c20.52,13.87,45.337,21.98,71.952,21.98c10.072,0,19.886-1.172,29.311-3.368
		c6.673,11.73,15.136,28.998,21.965,50.729c6.985,22.223,12.268,49.056,12.268,79.438c0,5.829-0.196,11.807-0.61,17.894l-0.774,11.3
		h139.356l-1.196-11.628l-0.007-0.039c-0.032-0.382-0.368-4.141-0.368-10.994c0.008-20.98,3.149-70.865,27.677-141.067
		c11.667,4.228,24.239,6.564,37.32,6.564c15.058,0,29.46-3.064,42.532-8.596c19.63-8.298,36.289-22.144,48.065-39.578
		c11.784-17.425,18.676-38.508,18.676-61.106C507.441,223.536,500.884,202.939,489.64,185.77z M312.027,489.339
		c0,0.524,0,1.024,0,1.516h-94.238c0.078-2.712,0.133-5.392,0.133-8.049c0-32.835-5.72-61.832-13.244-85.775
		c-6.673-21.208-14.768-38.468-21.637-51.049c3.14-1.328,6.22-2.766,9.228-4.337c3.329,2.501,6.814,4.806,10.424,6.908l-0.343,0.172
		l40.664,81.321l-0.398-67.904c4.579,0.594,9.244,0.914,13.98,0.914c3.891,0,7.735-0.211,11.526-0.617l7.4,68.154l32.951-80.876
		c8.557-4.727,16.394-10.58,23.317-17.362c3.157,2.422,6.462,4.649,9.877,6.72C315.574,412.863,312.019,466.014,312.027,489.339z
		 M479.365,279.868c-6.682,15.792-17.864,29.271-31.929,38.773c-14.088,9.502-30.982,15.042-49.268,15.05
		c-11.643-0.008-22.7-2.251-32.834-6.322c-7.322-2.937-14.152-6.844-20.356-11.556c0.313-0.484,0.618-0.961,0.906-1.43
		c0.516-0.797,0.993-1.548,1.392-2.172c0.398-0.617,0.742-1.125,0.906-1.376l-17.417-11.986c-0.313,0.453-0.61,0.907-0.946,1.422
		c-0.578,0.89-1.235,1.923-1.938,3.016c-1.032,1.641-2.165,3.422-3.149,4.915c-0.485,0.742-0.946,1.415-1.305,1.915
		c-0.18,0.266-0.328,0.484-0.454,0.633l-0.133,0.18l-0.038,0.046l-0.008,0.008h-0.008c-7.915,9.463-17.832,17.199-29.068,22.559
		c-11.245,5.36-23.802,8.361-37.124,8.361c-10.8,0-21.082-1.961-30.584-5.564c-9.494-3.61-18.199-8.838-25.763-15.362l-0.344-0.297
		c-0.203-0.18-0.461-0.422-0.766-0.711c-0.961-0.899-2.36-2.25-3.922-3.79c-2.352-2.32-5.119-5.111-7.65-7.728
		c-1.266-1.313-2.469-2.571-3.524-3.712c-1.047-1.125-1.954-2.133-2.579-2.86l-16.058,13.752c1.391,1.626,3.126,3.5,5.079,5.556
		c1.562,1.641,3.243,3.368,4.915,5.072c-12.94,5.532-27.17,8.603-42.172,8.603c-14.878,0-28.998-3.008-41.852-8.447
		c-19.284-8.15-35.718-21.801-47.314-38.96c-11.596-17.176-18.355-37.805-18.355-60.098c0-22.184,6.688-42.704,18.16-59.817
		c8.158-12.158,18.754-22.559,31.068-30.513c-0.054,1.899-0.078,3.782-0.078,5.602c0,1.641,0.015,3.228,0.078,4.72
		c0.047,1.5,0.126,2.899,0.258,4.25l21.043-2.102c-0.062-0.687-0.133-1.696-0.171-2.883c-0.047-1.172-0.055-2.532-0.055-3.986
		c0-4.141,0.156-9.04,0.375-13.276c0.102-2.126,0.226-4.087,0.344-5.704c0.117-1.602,0.234-2.907,0.312-3.492v-0.016
		c3.399-27.881,16.98-52.612,36.93-70.412c9.97-8.892,21.536-16.034,34.186-20.957c12.658-4.915,26.411-7.619,40.844-7.627
		c14.159,0.008,27.669,2.602,40.125,7.346c7.236,2.75,14.088,6.244,20.52,10.346c-1.805,1.024-3.673,2.133-5.548,3.321l11.346,17.84
		c3.844-2.446,7.892-4.587,11.244-6.22c1.688-0.821,3.204-1.524,4.454-2.079c1.259-0.571,2.22-0.977,2.938-1.297
		c11.886-5.212,25.005-8.103,38.875-8.103c13.409,0,26.138,2.712,37.734,7.611c17.378,7.352,32.194,19.652,42.657,35.132
		c10.448,15.487,16.543,34.077,16.543,54.19c0,5.08-0.392,10.08-1.133,14.956c-0.016,0.102-0.086,0.5-0.211,1.024
		c-0.219,0.954-0.579,2.344-1.024,3.876c-0.664,2.305-1.532,4.985-2.423,7.384c-0.445,1.203-0.906,2.321-1.328,3.29
		c-0.406,0.938-0.805,1.727-1.054,2.172l18.363,10.494v-0.008c0.594-1.031,1.11-2.071,1.61-3.141
		c0.86-1.875,1.648-3.852,2.391-5.868c0.242-0.664,0.477-1.336,0.703-2.008c10.44,6.72,19.371,15.573,26.161,25.95
		c9.072,13.87,14.339,30.381,14.347,48.205C486.288,257.762,483.826,269.326,479.365,279.868z" style="fill: rgb(75, 75, 75);"></path>
</g>
</svg>
