<!--?xml version="1.0" encoding="utf-8"?-->
<!-- Generator: Adobe Illustrator 18.1.1, SVG Export Plug-In . SVG Version: 6.00 Build 0)  -->

<svg version="1.1" id="_x32_" xmlns="http://www.w3.org/2000/svg" xmlns:xlink="http://www.w3.org/1999/xlink" x="0px" y="0px" viewBox="0 0 512 512" style="width: 32px; height: 32px; opacity: 1;" xml:space="preserve">
<style type="text/css">
	.st0{fill:#4B4B4B;}
</style>
<g>
	<path class="st0" d="M64.175,232.851c-6.855,0-12.413,5.558-12.413,12.413c0,6.849,5.558,12.414,12.413,12.414
		c6.849,0,12.402-5.564,12.402-12.414C76.577,238.409,71.024,232.851,64.175,232.851z" style="fill: rgb(75, 75, 75);"></path>
	<path class="st0" d="M508.601,257.217c-18.39-28.498-37.044-32.482-44.121-42.289c-11.952-16.545-17.67-17.505-35.846-50.558
		c-10.114-18.378-16.545-58.816-34.929-68.014c-7.36-10.108-24.821-4.599-32.181,16.539c0,0-21.132,60.672-29.408,60.672
		c-8.27,0-67.098-56.073-141.561-54.228c-37.48,0.922-40.438,35.845-40.438,35.845c-2.76-2.754-58.367,11.492-87.326,39.522
		c-30.625,29.66-53.313,74.457-53.313,74.457c-7.347-0.922-15.629,12.862-2.754,22.977c12.862,10.114,17.456,17.468,17.456,17.468
		s-11.94,8.269-11.024,16.545c0.922,8.27,7.354,17.462,19.306,11.031c3.677,5.514,22.983,22.976,29.408,23.899
		c6.438,0.916,53.313-56.996,52.397-113.057c5.521-17.468,15.254-10.329,14.707,8.27c-0.916,31.252-26.653,91.919-46.876,114.902
		c-1.844,20.222,73.529,46.882,83.65,48.714c0.916-1.832-9.198-25.737-0.922-34.013c2.754-4.593-26.66,0.006-34.007-3.677
		c-7.36-3.677-11.031-8.27,8.27-8.27c19.306,0,27.576-7.354,27.576-7.354s-0.916-19.306,4.593-26.654
		c-20.223,9.192-36.768,13.785-34.014,8.27c2.761-5.516,40.45-25.738,40.45-25.738l4.593-27.576c0,0-46.876,34.93-55.152,36.768
		c-8.276,1.832,44.122-41.361,51.474-49.643c7.354-8.263,21.144-5.515,16.546,12.875c-4.599,18.384-24.649,88.919-16.546,121.333
		c1.838,7.354,17.468,3.677,37.69,0.916c20.222-2.748,62.504-19.3,68.936-22.054c6.437-2.761,28.258,6.505,35.39,3.21
		c17.922-8.276,37.222-41.822,44.582-57.445c21.138-37.683,81.811-21.132,122.255-43.192
		C513.759,283.31,515.383,268.708,508.601,257.217z M42.109,329.368c0,0-9.647-2.754-4.138-8.276
		c5.522-5.515,9.653-16.545,9.653-16.545s-19.3-20.677-22.06-24.809c-2.748-4.144-8.276-16.552,1.378-9.665
		c4.051,2.896,31.713,34.474,31.713,34.474L42.109,329.368z M64.175,274.217c-12.948,0-23.438-10.489-23.438-23.444
		c0-12.942,10.489-23.431,23.438-23.431c12.942,0,23.432,10.489,23.432,23.431C87.607,263.728,77.118,274.217,64.175,274.217z
		 M188.638,166.041c-4.789-4.691-1.641-35.894,7.514-35.593C205.3,130.762,197.479,174.723,188.638,166.041z M231.867,176.321
		c-3.941-5.238,2.428-35.845,10.914-34.468C251.259,143.237,239.147,185.981,231.867,176.321z M271.168,189.676
		c-2.742-5.459,4.691-35.587,11.35-33.693C289.176,157.871,276.228,199.747,271.168,189.676z M312.423,382.724
		c-7.71-2.374-22.429-15.15-3.024-11.129C328.803,375.604,336.046,389.997,312.423,382.724z M328.969,357.909
		c-7.711-2.379-22.436-15.149-3.032-11.141C345.348,350.789,352.591,365.182,328.969,357.909z M372.979,188.926
		c-5.927,4.236-15.598,2.127-7.624-7.618c7.624-9.32,26.26-32.199,30.496-33.041c4.236-0.842,12.703,4.236,5.933,13.551
		C395.002,171.139,372.979,188.926,372.979,188.926z M388.246,211.884c9.161-6.678,31.56-23.106,35.618-22.866
		c4.058,0.228,10.575,6.868,2.189,13.754c-8.381,6.886-32.667,17.874-32.667,17.874
		C386.979,223.099,378.673,218.875,388.246,211.884z M410.084,239.687c9.395-6.345,32.372-21.95,36.424-21.575
		c4.046,0.382,10.317,7.249,1.685,13.828c-8.62,6.573-33.288,16.68-33.288,16.68C408.418,250.841,400.26,246.328,410.084,239.687z
		 M467.56,270.036c-9.604,5.029-35.612,10.87-35.612,10.87c-6.776,1.101-14.055-4.722-3.259-9.616
		c10.324-4.685,35.588-16.219,39.51-15.174C472.134,257.167,477.164,264.994,467.56,270.036z" style="fill: rgb(75, 75, 75);"></path>
</g>
</svg>
