<!--?xml version="1.0" encoding="utf-8"?-->
<!-- Generator: Adobe Illustrator 18.1.1, SVG Export Plug-In . SVG Version: 6.00 Build 0)  -->

<svg version="1.1" id="_x32_" xmlns="http://www.w3.org/2000/svg" xmlns:xlink="http://www.w3.org/1999/xlink" x="0px" y="0px" viewBox="0 0 512 512" style="width: 32px; height: 32px; opacity: 1;" xml:space="preserve">
<style type="text/css">
	.st0{fill:#4B4B4B;}
</style>
<g>
	<path class="st0" d="M68.173,182.354c-98.206,98.221-73.314,248.837-30.337,291.827c43.005,43.006,193.634,67.898,291.84-30.323
		c51.09-51.075,90.54-90.525,90.54-90.525L158.711,91.83C158.711,91.83,119.263,131.279,68.173,182.354z M194.604,412.66
		c22.309-4.264,44.728-14.015,63.814-33.059c8.334-8.334,21.835-8.334,30.17,0c8.334,8.334,8.334,21.837,0,30.17
		c-25.949,25.99-57.035,39.352-86.039,44.826c-29.114,5.472-56.284,3.472-77.259-1.417c-11.474-2.71-18.586-14.183-15.891-25.656
		c2.696-11.474,14.196-18.586,25.67-15.891C150.404,415.272,172.379,416.924,194.604,412.66z" style="fill: rgb(75, 75, 75);"></path>
	<path class="st0" d="M456.595,96.803l22.837-22.851c10.194-10.196,10.194-26.697,0-36.878c-10.169-10.183-26.698-10.196-36.866,0
		l-22.35,22.336C336.065-12.697,235.721-15.1,190.27,30.35c-20.057,20.044-22.835,22.837-23.141,23.142l291.41,291.41
		c0.306-0.306,3.084-3.084,23.142-23.142C526.242,277.2,524.631,179.909,456.595,96.803z" style="fill: rgb(75, 75, 75);"></path>
</g>
</svg>
