<!--?xml version="1.0" encoding="utf-8"?-->
<!-- Generator: Adobe Illustrator 18.1.1, SVG Export Plug-In . SVG Version: 6.00 Build 0)  -->

<svg version="1.1" id="_x32_" xmlns="http://www.w3.org/2000/svg" xmlns:xlink="http://www.w3.org/1999/xlink" x="0px" y="0px" viewBox="0 0 512 512" style="width: 32px; height: 32px; opacity: 1;" xml:space="preserve">
<style type="text/css">
	.st0{fill:#4B4B4B;}
</style>
<g>
	<path class="st0" d="M502.742,172.999c6.548-18.315,20.17-56.424-7.02-93.426c-15.735-21.398-39.013-32.254-69.197-32.254
		c-5.597,0-10.806,0.346-14.987,0.624l-1.824,0.118C377.878,29.266,334.548,18.63,288.938,18.63
		c-62.008,0-121.782,18.838-168.313,53.044C30.44,137.991-5.738,257.512,10.515,335.055c-0.413,1.183-0.866,2.45-1.258,3.549
		c-6.547,18.314-20.174,56.432,7.033,93.442c15.73,21.39,39.004,32.229,69.185,32.229c5.588,0,10.787-0.338,14.965-0.608l1.83-0.119
		c32.157,19.042,75.739,29.822,121.464,29.822c61.244,0,120.374-18.687,166.504-52.606
		c90.862-66.789,127.476-186.64,111.247-264.209C501.898,175.364,502.35,174.097,502.742,172.999z M457.786,179.698
		c16.41,61.214-15.206,168.908-93.172,226.219c-42.286,31.097-93.797,44.2-140.882,44.2c-41.974,0-80.424-10.416-105.684-27.778
		c-2.564-1.766-6.331-2.272-10.86-2.272c-6.21,0-13.846,0.955-21.715,0.955c-12.377,0-25.348-2.365-34.333-14.59
		c-21.069-28.664,7.13-59.33,3.071-74.52c-16.414-61.214,14.074-168.063,92.032-225.391c42.641-31.35,94.988-44.638,142.694-44.638
		c41.779,0,79.994,10.188,105.016,27.388c2.56,1.757,6.319,2.264,10.839,2.264c6.213,0,13.85-0.963,21.732-0.963
		c12.376,0,25.352,2.382,34.34,14.614C481.923,133.843,453.719,164.509,457.786,179.698z" style="fill: rgb(75, 75, 75);"></path>
	<path class="st0" d="M227.082,328.137c-9.956,0-18.024,8.068-18.024,18.02c0,9.952,8.068,18.028,18.024,18.028
		c9.952,0,18.02-8.076,18.02-18.028C245.102,336.204,237.034,328.137,227.082,328.137z" style="fill: rgb(75, 75, 75);"></path>
	<path class="st0" d="M364.771,218.567c-9.956,0-18.024,8.068-18.024,18.019s8.068,18.028,18.024,18.028
		c9.952,0,18.02-8.076,18.02-18.028S374.723,218.567,364.771,218.567z" style="fill: rgb(75, 75, 75);"></path>
	<path class="st0" d="M347.47,156.577c9.952,0,18.019-8.076,18.019-18.028c0-9.952-8.068-18.02-18.019-18.02
		c-9.956,0-18.024,8.068-18.024,18.02C329.446,148.5,337.514,156.577,347.47,156.577z" style="fill: rgb(75, 75, 75);"></path>
	<path class="st0" d="M135.532,305.801c-9.956,0-18.024,8.068-18.024,18.02c0,9.952,8.068,18.028,18.024,18.028
		c9.952,0,18.019-8.076,18.019-18.028C153.552,313.868,145.484,305.801,135.532,305.801z" style="fill: rgb(75, 75, 75);"></path>
	<path class="st0" d="M342.426,328.145c-9.956,0-18.024,8.068-18.024,18.019c0,9.952,8.068,18.028,18.024,18.028
		c9.952,0,18.019-8.076,18.019-18.028C360.446,336.213,352.378,328.145,342.426,328.145z" style="fill: rgb(75, 75, 75);"></path>
	<path class="st0" d="M244.384,207.027c-9.956,0-18.024,8.068-18.024,18.02s8.068,18.028,18.024,18.028
		c9.952,0,18.019-8.076,18.019-18.028S254.336,207.027,244.384,207.027z" style="fill: rgb(75, 75, 75);"></path>
</g>
</svg>
