<!--?xml version="1.0" encoding="utf-8"?-->
<!-- Generator: Adobe Illustrator 18.1.1, SVG Export Plug-In . SVG Version: 6.00 Build 0)  -->

<svg version="1.1" id="_x32_" xmlns="http://www.w3.org/2000/svg" xmlns:xlink="http://www.w3.org/1999/xlink" x="0px" y="0px" viewBox="0 0 512 512" style="width: 32px; height: 32px; opacity: 1;" xml:space="preserve">
<style type="text/css">
	.st0{fill:#4B4B4B;}
</style>
<g>
	<path class="st0" d="M75.878,234.256c-6.438,0-11.647,5.224-11.647,11.662c0,6.43,5.21,11.647,11.647,11.647
		c6.438,0,11.655-5.217,11.655-11.647C87.533,239.481,82.316,234.256,75.878,234.256z" style="fill: rgb(75, 75, 75);"></path>
	<path class="st0" d="M243.6,148.811c-7.962-1.295-13.941,27.453-10.249,32.366C240.189,190.235,251.562,150.106,243.6,148.811z" style="fill: rgb(75, 75, 75);"></path>
	<path class="st0" d="M306.15,364.543c-18.218-3.774-4.395,8.221,2.849,10.456C331.168,381.829,324.375,368.309,306.15,364.543z" style="fill: rgb(75, 75, 75);"></path>
	<path class="st0" d="M280.917,162.079c-6.26-1.783-13.238,26.513-10.664,31.634C275.005,203.177,287.162,163.855,280.917,162.079z" style="fill: rgb(75, 75, 75);"></path>
	<path class="st0" d="M506.645,249.218c-0.111-0.185-0.214-0.362-0.326-0.533c-12.787-19.802-26.091-28.948-34.89-35.008
		c-2.767-1.91-6.216-4.27-7.014-5.372c-4.004-5.543-7.415-9.501-10.426-12.994c-5.876-6.808-11.418-13.245-22.207-32.869
		c-2.516-4.566-5.068-11.958-7.776-19.787c-6.379-18.433-13.549-39.159-28.622-48.764c-5.01-5.128-11.781-7.999-19.106-7.999
		c-15.34,0-29.436,12.018-35.904,30.598c-5.12,14.703-11.987,31.863-16.953,41.926c-0.399-0.273-0.806-0.54-1.205-0.799
		c-22.185-14.792-68.366-45.582-124.278-45.582c-1.25,0-2.494,0.015-3.759,0.045c-29.91,0.732-44.428,19.128-50.162,34.941
		c-20.061,4.432-57.4,18.07-80.272,40.225c-23.878,23.117-42.556,54.692-49.837,67.9c-5.587,2.849-10.123,8.007-12.388,14.57
		c-4.032,11.639,0.104,24.086,10.782,32.477c1.775,1.399,3.337,2.723,4.706,3.936c-3.086,4.803-5.268,10.708-4.529,17.464
		c1.694,15.221,12.868,26.262,26.572,26.262c0.681,0,1.362-0.03,2.05-0.082c8.28,8.243,21.074,18.988,30.428,20.334
		c0.725,0.104,1.606,0.17,2.345,0.17c1.325,0,2.59-0.155,3.804-0.43c7.778,33.528,89.9,55.246,90.794,55.402
		c0.94,0.177,1.872,0.251,2.79,0.251c2.753,0,5.424-0.725,7.747-2.057c3.346,1.598,7.674,2.664,13.276,2.664
		c5.854,0,12.61-1.006,20.453-2.168c2.582-0.377,5.298-0.792,8.103-1.169c20.467-2.79,57.547-17.308,66.686-20.993
		c2.043,0.244,5.668,1.043,8.214,1.584c5.676,1.25,11.529,2.538,16.976,2.538c4.003,0,7.444-0.702,10.514-2.116
		c24.671-11.38,45.716-53.67,49.164-60.884c7.459-12.75,24.116-15.74,50.526-19.114c18.64-2.375,39.759-5.076,57.91-14.976
		c16.516-9.013,26.594-19.735,29.938-31.871C513.32,267.703,511.892,258.12,506.645,249.218z M473.354,295.119
		c-37.975,20.712-94.945,5.18-114.792,40.558c-6.912,14.673-25.033,46.181-41.868,53.944c-6.696,3.093-27.186-5.602-33.224-3.019
		c-6.046,2.596-45.745,18.136-64.74,20.718c-18.98,2.598-33.661,6.046-35.385-0.865c-7.614-30.428,11.218-96.67,15.532-113.926
		c4.321-17.271-8.628-19.846-15.532-12.091c-6.911,7.778-56.105,48.335-48.342,46.611c7.77-1.724,51.798-34.52,51.798-34.52
		l-4.321,25.892c0,0-35.393,18.988-37.976,24.168c-2.597,5.186,12.95,0.865,31.93-7.77c-5.172,6.911-4.307,25.033-4.307,25.033
		s-7.769,6.904-25.906,6.904c-18.114,0-14.666,4.315-7.762,7.762c6.911,3.456,34.527-0.858,31.937,3.456
		c-7.762,7.77,1.731,30.205,0.866,31.944c-9.494-1.739-80.272-26.765-78.548-45.752c18.995-21.577,43.155-78.548,44.02-107.895
		c0.518-17.464-8.628-24.168-13.807-7.77c0.865,52.656-43.163,107.037-49.194,106.171c-6.046-0.873-24.182-17.264-27.63-22.451
		c-11.218,6.046-17.264-2.582-18.122-10.345c-0.858-7.77,10.352-15.54,10.352-15.54s-4.314-6.904-16.397-16.405
		c-12.084-9.494-4.314-22.436,2.59-21.57c0,0,21.304-42.068,50.066-69.92c27.186-26.321,79.406-39.699,81.988-37.109
		c0,0,2.782-32.796,37.983-33.662c69.92-1.731,125.159,50.917,132.921,50.917c7.77,0,27.623-56.97,27.623-56.97
		c6.911-19.846,23.302-25.018,30.205-15.532c17.271,8.635,23.317,46.618,32.803,63.874c17.071,31.034,22.436,31.938,33.662,47.477
		c6.652,9.198,24.167,12.95,41.431,39.692C499.571,267.932,498.054,281.636,473.354,295.119z" style="fill: rgb(75, 75, 75);"></path>
	<path class="st0" d="M40.93,269.22c-9.065-6.475-3.892,5.179-1.295,9.057c2.59,3.885,20.712,23.308,20.712,23.308
		s-3.885,10.36-9.072,15.54c-5.172,5.18,3.885,7.77,3.885,7.77l15.54-23.309C70.699,301.586,44.726,271.936,40.93,269.22z" style="fill: rgb(75, 75, 75);"></path>
	<path class="st0" d="M199.809,138.104c-8.591-0.288-11.552,29.014-7.052,33.425C201.052,179.676,208.407,138.393,199.809,138.104z" style="fill: rgb(75, 75, 75);"></path>
	<path class="st0" d="M434.898,220.426c-3.804-0.37-25.382,14.296-34.202,20.26c-9.22,6.231-1.562,10.464,4.528,8.377
		c0,0,23.162-9.479,31.264-15.658C444.584,227.227,438.701,220.781,434.898,220.426z" style="fill: rgb(75, 75, 75);"></path>
	<path class="st0" d="M413.638,193.099c-3.818-0.222-24.848,15.206-33.447,21.473c-8.99,6.564-1.184,10.53,4.832,8.221
		c0,0,22.806-10.315,30.665-16.775C423.562,199.544,417.449,193.314,413.638,193.099z" style="fill: rgb(75, 75, 75);"></path>
	<path class="st0" d="M321.682,341.227c-18.217-3.759-4.388,8.236,2.849,10.462C346.716,358.519,339.907,345.007,321.682,341.227z" style="fill: rgb(75, 75, 75);"></path>
	<path class="st0" d="M455.276,256.107c-3.685-0.984-27.416,9.849-37.11,14.245c-10.137,4.602-3.3,10.071,3.057,9.035
		c0,0,24.426-5.476,33.439-10.212C463.69,264.439,458.961,257.099,455.276,256.107z" style="fill: rgb(75, 75, 75);"></path>
	<path class="st0" d="M392.904,167.555c6.364-8.746-1.591-13.52-5.572-12.72c-3.966,0.784-21.466,22.273-28.629,31.027
		c-7.496,9.138,1.591,11.122,7.163,7.148C365.866,193.01,386.533,176.309,392.904,167.555z" style="fill: rgb(75, 75, 75);"></path>
</g>
</svg>
