<!--?xml version="1.0" encoding="utf-8"?-->
<!-- Generator: Adobe Illustrator 18.1.1, SVG Export Plug-In . SVG Version: 6.00 Build 0)  -->

<svg version="1.1" id="_x32_" xmlns="http://www.w3.org/2000/svg" xmlns:xlink="http://www.w3.org/1999/xlink" x="0px" y="0px" viewBox="0 0 512 512" style="width: 32px; height: 32px; opacity: 1;" xml:space="preserve">
<style type="text/css">
	.st0{fill:#4B4B4B;}
</style>
<g>
	<path class="st0" d="M185.029,199.251c-25.203,0-45.622,20.434-45.622,45.637s20.418,45.627,45.622,45.627
		c25.194,0,45.628-20.424,45.628-45.627S210.223,199.251,185.029,199.251z" style="fill: rgb(75, 75, 75);"></path>
	<path class="st0" d="M326.971,199.251c-25.188,0-45.622,20.434-45.622,45.637s20.434,45.627,45.622,45.627
		c25.194,0,45.628-20.424,45.628-45.627S352.165,199.251,326.971,199.251z" style="fill: rgb(75, 75, 75);"></path>
	<path class="st0" d="M281.103,310.79l-25.095-39.215l-25.099,39.215c-7.838,12.547,18.82,28.231,25.099,1.563
		C262.282,339.021,288.929,323.338,281.103,310.79z" style="fill: rgb(75, 75, 75);"></path>
	<path class="st0" d="M177.687,365.194v25.016h27.376v-36.504H189.18C182.823,353.706,177.687,358.861,177.687,365.194z" style="fill: rgb(75, 75, 75);"></path>
	<rect x="220.771" y="353.706" class="st0" width="27.371" height="36.504" style="fill: rgb(75, 75, 75);"></rect>
	<rect x="263.859" y="353.706" class="st0" width="27.376" height="36.504" style="fill: rgb(75, 75, 75);"></rect>
	<path class="st0" d="M322.826,353.706h-15.882v36.504h27.38v-25.016C334.324,358.861,329.178,353.706,322.826,353.706z" style="fill: rgb(75, 75, 75);"></path>
	<path class="st0" d="M177.687,426.366c0,6.363,5.136,11.488,11.494,11.488h15.882v-36.493h-27.376V426.366z" style="fill: rgb(75, 75, 75);"></path>
	<rect x="220.771" y="401.362" class="st0" width="27.371" height="36.493" style="fill: rgb(75, 75, 75);"></rect>
	<rect x="263.859" y="401.362" class="st0" width="27.376" height="36.493" style="fill: rgb(75, 75, 75);"></rect>
	<path class="st0" d="M306.944,437.855h15.882c6.352,0,11.498-5.125,11.498-11.488v-25.005h-27.38V437.855z" style="fill: rgb(75, 75, 75);"></path>
	<path class="st0" d="M417.751,75.551l0.02-0.01c-13.814-17.178-33.357-36.088-59.976-50.693C331.187,10.222,297.503-0.01,256.008,0
		c-41.511-0.01-75.189,10.222-101.803,24.848c-26.622,14.605-46.16,33.515-59.97,50.693
		c-30.858,38.532-49.184,88.701-49.244,135.465v105.197c0.015,8.282,2.088,16.96,5.646,25.559
		c5.362,12.874,14.105,25.639,25.396,35.92c9.544,8.689,21.012,15.616,33.846,18.87v22.037c0.026,8.273,2.583,18.128,8.248,28.668
		c5.679,10.508,14.556,21.63,27.38,31.823c19.216,15.297,54.102,32.961,110.5,32.921c56.388,0.04,91.279-17.624,110.485-32.921
		c12.834-10.192,21.691-21.314,27.37-31.823c5.66-10.539,8.233-20.394,8.253-28.668v-22.037
		c17.89-4.531,33.069-16.169,44.251-29.883c6.333-7.808,11.439-16.307,15.002-24.906c3.542-8.599,5.62-17.277,5.64-25.559V211.006
		C466.95,164.242,448.624,114.072,417.751,75.551z M434.434,316.203c0,16.663-21.908,49.763-47.734,49.763
		c-5.591,0-11.37-1.553-17.138-5.156c0,0,0,45.618,0,57.778c0,12.182-24.343,60.846-113.554,60.846
		c-89.23,0-113.558-48.664-113.558-60.846c0-12.16,0-57.778,0-57.778c-5.784,3.602-11.558,5.156-17.154,5.156
		c-25.816,0-47.744-33.1-47.744-49.763c0-20.296,0-36.247,0-105.197c0-68.94,52.737-178.44,178.456-178.44
		c125.715,0,178.426,109.5,178.426,178.44C434.434,279.956,434.434,295.907,434.434,316.203z" style="fill: rgb(75, 75, 75);"></path>
</g>
</svg>
