<!--?xml version="1.0" encoding="utf-8"?-->
<!-- Generator: Adobe Illustrator 18.1.1, SVG Export Plug-In . SVG Version: 6.00 Build 0)  -->

<svg version="1.1" id="_x32_" xmlns="http://www.w3.org/2000/svg" xmlns:xlink="http://www.w3.org/1999/xlink" x="0px" y="0px" viewBox="0 0 512 512" style="width: 32px; height: 32px; opacity: 1;" xml:space="preserve">
<style type="text/css">
	.st0{fill:#4B4B4B;}
</style>
<g>
	<path class="st0" d="M507.64,124.413c-5.388-19.392-16.136-38.538-33.206-56.158c-17.26-17.888-36.894-29.036-57.124-34.06
		c-20.246-5.055-40.932-4.043-60.498,1.424c-24.887,6.931-48.092,20.935-67.602,39.179c-19.514,18.276-35.37,40.84-45.24,65.447
		c-6.294,15.697-13.391,25.919-20.872,32.889c-3.75,3.481-7.631,6.187-11.749,8.387c-4.11,2.192-8.486,3.868-13.205,5.182
		c-6.108,1.701-12.777,2.769-19.977,3.505c-10.792,1.108-22.715,1.424-35.453,2.374c-12.75,0.958-26.326,2.555-40.342,6.464
		c-9.454,2.626-19.099,6.321-28.739,11.527c-16.314,8.798-29.914,19.258-40.786,31.07c-16.326,17.73-26.406,38.53-30.556,60.58
		c-4.173,22.074-2.52,45.295,3.908,68.406c2.588,9.28,5.946,18.553,10.028,27.762c5.803,13.07,14.526,25.611,25.516,36.877
		c16.484,16.892,38.115,30.975,63.03,38.934c24.887,7.959,53.159,9.7,82.141,1.614c3.813-1.052,7.642-2.279,11.472-3.679
		c26.311-9.661,48.396-23.253,67.776-38.523c29.088-22.937,52.266-49.56,75.499-73.161c11.602-11.828,23.209-22.913,35.437-32.542
		c12.256-9.636,25.14-17.817,39.412-23.996c12.284-5.332,24.994-14.162,37.289-25.618c18.379-17.169,35.702-40.279,46.72-66.831
		c5.482-13.276,9.363-27.439,10.831-42.107C512.83,154.716,511.857,139.517,507.64,124.413z M486.116,179.044
		c-4.961,23.87-17.524,46.894-32.648,65.32c-7.548,9.217-15.713,17.288-23.728,23.759c-7.987,6.496-15.871,11.346-22.552,14.241
		c-22.019,9.51-40.679,22.976-57.697,38.048c-25.524,22.62-47.57,48.816-72.22,72.299c-12.295,11.764-25.219,22.864-39.464,32.636
		c-14.241,9.764-29.808,18.221-47.518,24.724c-3.24,1.203-6.468,2.231-9.668,3.126c-16.231,4.518-32.011,5.372-46.961,3.465
		c-22.417-2.856-43.036-11.97-59.774-24.416c-16.737-12.406-29.463-28.158-36.184-43.373c-3.64-8.228-6.614-16.448-8.869-24.55
		c-3.762-13.474-5.562-26.664-5.321-39.266c0.361-18.926,5.175-36.49,15.005-52.282c9.854-15.792,24.847-29.97,46.264-41.529
		c7.975-4.296,15.911-7.342,23.886-9.566c15.78-4.399,31.77-5.546,47.827-6.44c8.015-0.451,16.045-0.855,24.048-1.67
		c8.014-0.815,16.017-2.041,23.909-4.24c6.084-1.693,12.114-3.964,17.94-7.081c8.751-4.644,17.018-11.188,24.301-19.977
		c7.307-8.775,13.656-19.725,19.084-33.293c8.442-21.093,22.394-41.047,39.492-57.029c17.07-15.99,37.248-27.992,57.855-33.712
		c16.22-4.51,32.636-5.206,48.491-1.258c15.872,3.98,31.371,12.564,45.948,27.612c14.602,15.119,23.126,30.619,27.458,46.134
		C489.502,146.82,489.451,163.094,486.116,179.044z" style="fill: rgb(75, 75, 75);"></path>
	<path class="st0" d="M376.474,97.687c-4.802-4.77-6.962,3.735-13.525,10.325c-6.562,6.614-15.044,8.814-10.241,13.577
		c4.802,4.771,14.015,3.307,20.578-3.307C379.849,111.675,381.272,102.466,376.474,97.687z" style="fill: rgb(75, 75, 75);"></path>
	<path class="st0" d="M107.227,288.03c-1.827-6.52-7.896-0.182-16.856,2.31c-8.976,2.492-17.446,0.214-15.618,6.733
		c1.812,6.527,10.563,9.795,19.522,7.287C103.24,301.86,109.043,294.556,107.227,288.03z" style="fill: rgb(75, 75, 75);"></path>
	<path class="st0" d="M114.949,406.81c-2.532,0.095-6.227,0.776-10.135-0.079c-7.924-1.732-11.99-8.537-14.617-2.255
		c-1.321,3.093-0.95,6.646,1.12,9.74c2.014,3.077,5.736,5.728,10.404,6.749c4.652,0.996,9.174,0.173,12.294-1.828
		c3.176-2.002,4.949-5.08,4.977-8.458C119.032,407.292,117.485,406.715,114.949,406.81z" style="fill: rgb(75, 75, 75);"></path>
	<path class="st0" d="M164.631,395.741c-7.39,4.003-15.111,2.144-12.619,8.457c1.242,3.149,3.988,5.357,7.575,6.211
		c3.576,0.871,7.936,0.294,11.94-1.851c8.081-4.375,11.068-13.046,7.278-18.632C175.086,384.245,171.977,391.769,164.631,395.741z" style="fill: rgb(75, 75, 75);"></path>
	<path class="st0" d="M217.206,357.06c-6.524,5.633-14.684,6.583-10.376,11.796c4.292,5.23,13.268,4.929,19.87-0.759
		c6.587-5.657,8.256-14.447,3.775-19.526C226.007,343.484,223.753,351.434,217.206,357.06z" style="fill: rgb(75, 75, 75);"></path>
	<path class="st0" d="M267.497,313.054c-6.587,5.626-14.819,6.923-10.349,12.011c4.466,5.087,13.324,4.62,19.819-0.966
		c6.507-5.57,8.335-14.21,4.039-19.44C276.687,299.446,274.088,307.398,267.497,313.054z" style="fill: rgb(75, 75, 75);"></path>
	<path class="st0" d="M320.803,271.565c-7.267,4.89-15.63,5.546-11.642,10.998c4.043,5.443,12.817,5.76,19.78,1.068
		c6.934-4.668,9.949-12.825,6.535-18.672C331.994,259.143,328.062,266.667,320.803,271.565z" style="fill: rgb(75, 75, 75);"></path>
	<path class="st0" d="M380.699,240.708c-7.401,3.909-15.107,1.994-12.694,8.3c1.199,3.173,3.92,5.443,7.496,6.321
		c3.561,0.91,7.948,0.404,11.986-1.732c4.055-2.121,6.911-5.444,8.189-8.854c1.293-3.442,1.017-6.978-0.867-9.795
		C391.036,229.324,388.077,236.832,380.699,240.708z" style="fill: rgb(75, 75, 75);"></path>
	<path class="st0" d="M440.398,189.06c-5.669-3.734-5.483,4.304-10.753,10.839c-5.28,6.536-13.189,8.141-8.319,12.856
		c2.425,2.366,5.839,3.268,9.455,2.628c3.588-0.626,7.35-2.809,10.19-6.33c2.84-3.552,4.185-7.698,4.027-11.338
		C444.852,194.06,443.222,190.912,440.398,189.06z" style="fill: rgb(75, 75, 75);"></path>
	<path class="st0" d="M460.854,128.868c-3.398-0.048-3.96,1.519-3.866,4.114c0.107,2.579,0.855,6.329,0.107,10.316
		c-1.484,8.094-7.936,12.802-1.507,14.954c3.212,1.076,6.681,0.427,9.64-1.788c2.963-2.184,5.349-5.966,6.191-10.547
		c0.851-4.589-0.083-9.019-2.096-12.113C467.31,130.688,464.228,128.907,460.854,128.868z" style="fill: rgb(75, 75, 75);"></path>
	<path class="st0" d="M82.475,352.985c-2.441,0.262-5.934,1.243-9.578,0.689c-3.654-0.546-6.348-2.555-8.002-3.568
		c-1.693-1.021-2.694-1.1-4.641,1.7c-1.907,2.754-2.279,6.354-0.241,9.645c1.962,3.299,6.057,5.934,10.685,6.606
		c4.628,0.704,8.842-0.506,11.67-2.714c2.84-2.2,4.375-5.348,4.252-8.734C86.474,353.239,84.928,352.74,82.475,352.985z" style="fill: rgb(75, 75, 75);"></path>
	<path class="st0" d="M131.979,344.583c-7.52,2.801-14.854,0.135-13.026,6.654c1.717,6.536,9.949,10.032,18.098,6.986
		c8.145-3.03,12.109-11.029,9.146-17.113C143.329,334.978,139.503,341.782,131.979,344.583z" style="fill: rgb(75, 75, 75);"></path>
	<path class="st0" d="M190.182,305.428c-1.492,2.025-3.16,5.332-6.057,7.999c-5.827,5.364-13.616,5.452-9.573,10.879
		c2.013,2.738,5.174,4.217,8.734,4.24c3.548,0.016,7.496-1.448,10.696-4.398c3.229-2.96,5.028-6.804,5.282-10.349
		c0.265-3.56-0.985-6.772-3.454-9.083C193.343,302.381,191.638,303.45,190.182,305.428z" style="fill: rgb(75, 75, 75);"></path>
	<path class="st0" d="M229.848,268.812c-6.337,5.388-14.364,6.709-9.791,11.702c4.589,4.969,13.11,4.581,19.233-0.633
		c6.12-5.214,7.841-13.585,3.64-18.893C238.702,255.702,236.17,263.416,229.848,268.812z" style="fill: rgb(75, 75, 75);"></path>
	<path class="st0" d="M281.434,230.202c-6.935,4.564-15.029,4.802-11.163,10.348c3.908,5.538,12.429,6.242,19.177,1.82
		c6.75-4.446,9.444-12.54,5.922-18.332C291.81,218.294,288.384,225.645,281.434,230.202z" style="fill: rgb(75, 75, 75);"></path>
	<path class="st0" d="M337.315,198.436c-1.761,0.933-3.506,1.463-5.242,1.97c-1.784,0.506-3.414,0.926-4.708,1.416
		c-2.599,1.006-3.853,2.311-2.278,5.309c1.546,3.014,4.438,4.96,7.812,5.744c1.681,0.387,3.481,0.506,5.325,0.309
		c1.879-0.222,3.944-0.855,5.839-1.836c7.75-4.059,10.602-12.501,6.911-18.166C347.331,187.462,344.384,194.741,337.315,198.436z" style="fill: rgb(75, 75, 75);"></path>
	<path class="st0" d="M386.154,161.448c-5.519,5.807-13.324,6.686-8.786,11.726c4.454,5.095,13.335,4.612,19.336-1.677
		c2.975-3.126,4.521-6.994,4.616-10.538c0.08-3.545-1.309-6.765-3.963-8.854C392.036,147.887,391.704,155.649,386.154,161.448z" style="fill: rgb(75, 75, 75);"></path>
	<path class="st0" d="M430.168,113.107c0.906-4.493-0.04-8.884-2.16-11.828c-2.109-3.007-5.269-4.549-8.632-4.431
		c-3.399,0.119-3.893,1.542-3.707,3.908c0.174,2.35,0.962,5.784,0.226,9.494c-1.531,7.509-8.133,11.401-1.84,13.941
		c3.137,1.266,6.63,0.902,9.656-1.052C426.726,121.185,429.274,117.617,430.168,113.107z" style="fill: rgb(75, 75, 75);"></path>
</g>
</svg>
