<!--?xml version="1.0" encoding="utf-8"?-->
<!-- Generator: Adobe Illustrator 18.1.1, SVG Export Plug-In . SVG Version: 6.00 Build 0)  -->

<svg version="1.1" id="_x32_" xmlns="http://www.w3.org/2000/svg" xmlns:xlink="http://www.w3.org/1999/xlink" x="0px" y="0px" viewBox="0 0 512 512" style="width: 32px; height: 32px; opacity: 1;" xml:space="preserve">
<style type="text/css">
	.st0{fill:#4B4B4B;}
</style>
<g>
	<path class="st0" d="M474.459,11.36C342.508-35.211,288.179,73.455,284.298,120.026C435.65,143.312,466.697,57.931,474.459,11.36z" style="fill: rgb(75, 75, 75);"></path>
	<path class="st0" d="M483.063,239.971c-19.564-36.702-51.952-64.831-91.331-83.553c-39.431-18.753-86.024-28.387-135.73-28.402
		c-66.241,0.046-127.085,17.086-172.557,50.225c-22.695,16.577-41.478,37.294-54.504,61.731
		c-13.045,24.415-20.212,52.491-20.189,83.008c-0.023,30.517,7.152,58.327,20.288,82.273c19.707,36.012,52.302,62.845,91.649,80.423
		c39.419,17.609,85.839,26.31,135.313,26.325c65.934-0.053,126.574-15.41,172.182-46.98c22.748-15.797,41.667-35.793,54.78-59.768
		c13.136-23.946,20.314-51.756,20.284-82.273C503.279,292.462,496.108,264.386,483.063,239.971z M448.923,386.62
		c-14.88,27.174-40.075,48.671-73.458,63.626c-33.306,14.925-74.556,22.96-119.464,22.945c-59.9,0.053-113.18-14.342-150.041-40.053
		c-18.48-12.84-32.931-28.364-42.876-46.518c-9.926-18.184-15.501-39.105-15.524-63.641c0.022-24.537,5.61-45.927,15.622-64.748
		c15.02-28.16,40.413-50.869,73.768-66.772c33.299-15.872,74.378-24.65,119.05-24.634c59.597-0.046,112.672,15.645,149.662,42.751
		c18.541,13.56,33.124,29.85,43.16,48.656c10.006,18.821,15.6,40.211,15.615,64.748C464.424,347.515,458.845,368.436,448.923,386.62
		z" style="fill: rgb(75, 75, 75);"></path>
	<path class="st0" d="M260.618,175.602c-19.45,0-35.22,6.307-35.22,14.091c0,7.784,15.77,14.083,35.22,14.083
		c19.45,0,35.228-6.299,35.228-14.083C295.846,181.909,280.068,175.602,260.618,175.602z" style="fill: rgb(75, 75, 75);"></path>
	<path class="st0" d="M98.601,352.048c-7.603,0-13.758,6.147-13.758,13.75c0,7.595,6.155,13.757,13.758,13.757
		c7.599,0,13.758-6.162,13.758-13.757C112.359,358.196,106.199,352.048,98.601,352.048z" style="fill: rgb(75, 75, 75);"></path>
	<path class="st0" d="M349.004,387.264c-7.603,0-13.757,6.155-13.757,13.75c0,7.61,6.154,13.765,13.757,13.765
		c7.603,0,13.758-6.155,13.758-13.765C362.762,393.42,356.607,387.264,349.004,387.264z" style="fill: rgb(75, 75, 75);"></path>
	<path class="st0" d="M257.093,320.341c-7.599,0-13.753,6.155-13.753,13.758c0,7.595,6.154,13.757,13.753,13.757
		c7.607,0,13.762-6.162,13.762-13.757C270.855,326.496,264.7,320.341,257.093,320.341z" style="fill: rgb(75, 75, 75);"></path>
	<path class="st0" d="M211.307,403.061c-7.224,0-13.072,5.837-13.072,13.068c0,7.216,5.848,13.068,13.072,13.068
		c7.228,0,13.072-5.852,13.072-13.068C224.379,408.898,218.535,403.061,211.307,403.061z" style="fill: rgb(75, 75, 75);"></path>
	<path class="st0" d="M136.323,250.583c-7.22,0-13.068,5.852-13.068,13.076c0,7.223,5.848,13.068,13.068,13.068
		c7.227,0,13.071-5.845,13.071-13.068C149.393,256.434,143.55,250.583,136.323,250.583z" style="fill: rgb(75, 75, 75);"></path>
	<path class="st0" d="M420.127,306.94c-7.216,0-13.068,5.844-13.068,13.067c0,7.224,5.852,13.076,13.068,13.076
		c7.232,0,13.076-5.852,13.076-13.076C433.202,312.784,427.358,306.94,420.127,306.94z" style="fill: rgb(75, 75, 75);"></path>
	<path class="st0" d="M377.869,222.401c-7.224,0-13.076,5.852-13.076,13.075c0,7.224,5.852,13.076,13.076,13.076
		s13.068-5.852,13.068-13.076C390.936,228.253,385.093,222.401,377.869,222.401z" style="fill: rgb(75, 75, 75);"></path>
</g>
</svg>
