<!--?xml version="1.0" encoding="utf-8"?-->
<!-- Generator: Adobe Illustrator 18.1.1, SVG Export Plug-In . SVG Version: 6.00 Build 0)  -->

<svg version="1.1" id="_x32_" xmlns="http://www.w3.org/2000/svg" xmlns:xlink="http://www.w3.org/1999/xlink" x="0px" y="0px" viewBox="0 0 512 512" style="width: 32px; height: 32px; opacity: 1;" xml:space="preserve">
<style type="text/css">
	.st0{fill:#4B4B4B;}
</style>
<g>
	<path class="st0" d="M145.701,430.745c16.115,3.782,37.178,5.337,59.642,1.114c22.385-4.224,46.246-14.51,66.196-34.484
		l-18.757-18.758c-15.676,15.674-34.174,23.681-52.387,27.152c-18.163,3.472-35.987,2.15-48.632-0.829L145.701,430.745z" style="fill: rgb(75, 75, 75);"></path>
	<path class="st0" d="M502.049,178.499c-9.924-30.754-27.463-62-53.216-90.966l30.287-30.287l-24.38-24.379l-30.391,30.391
		C384.372,27.684,340.015,7.71,298.64,1.854c-22.904-3.239-44.874-2.228-64.746,3.005c-19.846,5.234-37.644,14.716-51.428,28.5
		c-23.525,23.524-40.288,40.313-40.34,40.34l-12.178,12.202l13.939,13.939c-13.757,13.757-41.817,41.816-75.264,75.291
		C19.059,224.668,0.664,287.393,0.017,342.5c-0.312,27.62,3.705,53.503,10.675,75.603c7.046,22.125,16.737,40.546,29.638,53.578
		c13.006,12.877,31.428,22.567,53.554,29.615c33.163,10.441,74.849,14.378,118.039,6.658c43.137-7.72,87.83-27.438,124.957-64.564
		c33.448-33.474,61.507-61.533,75.264-75.291l13.966,13.966l12.176-12.204c0.053-0.025,16.815-16.814,40.341-40.34
		c13.782-13.782,23.291-31.582,28.499-51.402C514.95,248.297,513.422,213.735,502.049,178.499z M322.916,42.763
		c29.768,9.613,61.066,27.982,89.696,56.611c36.583,36.558,56.195,77.441,62.491,113.947L298.562,36.804
		C306.516,38.152,314.651,40.095,322.916,42.763z M312.501,419.009c-42.076,42.049-95.369,57.828-143.43,58.476
		c-23.965,0.312-46.454-3.264-64.797-9.068c-18.37-5.725-32.542-13.964-39.564-21.141c-7.15-7.021-15.415-21.194-21.116-39.537
		c-8.731-27.566-12.331-64.331-5.595-101.588c6.736-37.308,23.421-75.057,55.003-106.639c33.448-33.475,61.508-61.533,75.266-75.291
		l219.498,219.497C374.007,357.477,345.949,385.535,312.501,419.009z M426.11,333.277L178.709,85.901
		c6.089-6.089,14.171-14.198,23.524-23.524l247.402,247.402C440.282,319.105,432.173,327.215,426.11,333.277z M473.782,269.334
		c-1.892,7.152-4.482,13.629-7.59,19.484L223.194,45.821c5.83-3.134,12.306-5.725,19.484-7.617
		c5.258-1.373,10.907-2.384,16.789-3.006l217.192,217.218C476.062,258.323,475.181,264.023,473.782,269.334z" style="fill: rgb(75, 75, 75);"></path>
</g>
</svg>
