<!--?xml version="1.0" encoding="utf-8"?-->
<!-- Generator: Adobe Illustrator 18.1.1, SVG Export Plug-In . SVG Version: 6.00 Build 0)  -->

<svg version="1.1" id="_x32_" xmlns="http://www.w3.org/2000/svg" xmlns:xlink="http://www.w3.org/1999/xlink" x="0px" y="0px" viewBox="0 0 512 512" style="width: 256px; height: 256px; opacity: 1;" xml:space="preserve">
<style type="text/css">
	.st0{fill:#4B4B4B;}
</style>
<g>
	<path class="st0" d="M503.556,156.001l-18.569-18.561c-11.258-11.266-29.518-11.257-40.776,0l-17.37,17.379l59.346,59.346
		l17.369-17.369C514.814,185.528,514.814,167.268,503.556,156.001z"></path>
	<polygon class="st0" points="264.082,317.579 264.082,376.924 323.428,376.924 470.001,230.352 410.656,171.006 	"></polygon>
	<rect x="121.111" y="142.306" class="st0" width="167.616" height="27.936"></rect>
	<rect x="121.111" y="244.738" class="st0" width="167.616" height="27.936"></rect>
	<rect x="121.111" y="347.17" class="st0" width="102.432" height="27.936"></rect>
	<path class="st0" d="M372.589,454.658c0,4.282-3.492,7.766-7.766,7.774H45.014c-4.274-0.008-7.748-3.492-7.766-7.774V57.344
		c0.018-4.284,3.492-7.766,7.766-7.776h319.809c4.274,0.009,7.766,3.492,7.766,7.776v112.225l37.248-37.248V57.344
		c-0.018-24.872-20.133-45.005-45.014-45.024H45.014C20.152,12.339,0.019,32.472,0,57.344v397.314
		c0.019,24.871,20.152,45.005,45.014,45.022h319.809c24.881-0.018,44.996-20.151,45.014-45.022V330.019l-37.248,37.248V454.658z"></path>
</g>
</svg>
