<!--?xml version="1.0" encoding="utf-8"?-->
<!-- Generator: Adobe Illustrator 18.1.1, SVG Export Plug-In . SVG Version: 6.00 Build 0)  -->

<svg version="1.1" id="_x32_" xmlns="http://www.w3.org/2000/svg" xmlns:xlink="http://www.w3.org/1999/xlink" x="0px" y="0px" viewBox="0 0 512 512" style="width: 256px; height: 256px; opacity: 1;" xml:space="preserve">
<style type="text/css">
	.st0{fill:#4B4B4B;}
</style>
<g>
	<path class="st0" d="M502.96,174.29l-19.882-19.873c-12.054-12.064-31.606-12.054-43.66,0l-18.598,18.607l63.542,63.542
		l18.597-18.598C515.014,205.905,515.014,186.353,502.96,174.29z" style="fill: rgb(75, 75, 75);"></path>
	<polygon class="st0" points="246.553,347.291 246.553,410.833 310.095,410.833 467.031,253.896 403.489,190.355 	" style="fill: rgb(75, 75, 75);"></polygon>
	<path class="st0" d="M216.642,440.744V334.906l158.903-158.903V11.725H0v488.549h375.545V387.679l-53.066,53.065H216.642z
		 M78.098,131.37h179.467v29.911H78.098V131.37z M78.098,241.044h179.467v29.911H78.098V241.044z M187.772,380.63H78.098v-29.911
		h109.674V380.63z" style="fill: rgb(75, 75, 75);"></path>
</g>
</svg>
