<!--?xml version="1.0" encoding="utf-8"?-->
<!-- Generator: Adobe Illustrator 18.1.1, SVG Export Plug-In . SVG Version: 6.00 Build 0)  -->

<svg version="1.1" id="_x32_" xmlns="http://www.w3.org/2000/svg" xmlns:xlink="http://www.w3.org/1999/xlink" x="0px" y="0px" viewBox="0 0 512 512" style="width: 32px; height: 32px; opacity: 1;" xml:space="preserve">
<style type="text/css">
	.st0{fill:#4B4B4B;}
</style>
<g>
	<path class="st0" d="M447.086,151.483c0.871-5.634,1.326-11.401,1.326-17.288c0-61.926-50.204-112.136-112.136-112.136
		c-16.007,0-31.224,3.36-44.995,9.404C268.701,11.864,239.222,0,206.978,0C141.236,0,87.016,49.302,79.259,112.949
		C35.441,131.825,4.762,175.381,4.762,226.114c0,68.028,55.144,123.173,123.173,123.173c12.452,0,24.48-1.856,35.814-5.306
		c15.336,24.86,46.426,86.204,40.837,168.018h121.332c0,0-6.826-66.643,33.019-174.465c13.682,6.73,29.078,10.522,45.353,10.522
		c56.858,0,102.948-46.09,102.948-102.948C507.238,203.527,482.572,167.728,447.086,151.483z M200.136,339.406
		c9.27,6.252,19.636,10.999,30.747,13.92l0.678,45.934L200.136,339.406z M280.513,424.045l-8.57-68.565
		c10.88-1.654,21.186-5.074,30.635-9.904L280.513,424.045z" style="fill: rgb(75, 75, 75);"></path>
</g>
</svg>
