<!--?xml version="1.0" encoding="utf-8"?-->
<!-- Generator: Adobe Illustrator 18.1.1, SVG Export Plug-In . SVG Version: 6.00 Build 0)  -->

<svg version="1.1" id="_x32_" xmlns="http://www.w3.org/2000/svg" xmlns:xlink="http://www.w3.org/1999/xlink" x="0px" y="0px" viewBox="0 0 512 512" style="width: 32px; height: 32px; opacity: 1;" xml:space="preserve">
<style type="text/css">
	.st0{fill:#4B4B4B;}
</style>
<g>
	<path class="st0" d="M502.743,172.999c6.547-18.315,20.17-56.424-7.02-93.426c-15.735-21.398-39.013-32.254-69.197-32.254
		c-5.597,0-10.806,0.346-14.988,0.625l-1.824,0.118C377.878,29.266,334.548,18.63,288.938,18.63
		c-62.008,0-121.782,18.838-168.313,53.044C30.439,137.99-5.739,257.512,10.515,335.056c-0.413,1.182-0.866,2.45-1.258,3.548
		c-6.547,18.314-20.174,56.432,7.033,93.442c15.73,21.39,39.004,32.229,69.185,32.229c5.588,0,10.788-0.338,14.965-0.608l1.83-0.118
		c32.157,19.042,75.739,29.822,121.464,29.822c61.243,0,120.374-18.687,166.504-52.606
		c90.862-66.789,127.476-186.64,111.247-264.209C501.898,175.364,502.35,174.097,502.743,172.999z M106.691,373.561
		c-11.946,0-21.627-9.698-21.627-21.635c0-11.946,9.681-21.627,21.627-21.627c11.941,0,21.622,9.681,21.622,21.627
		C128.313,363.863,118.632,373.561,106.691,373.561z M214.829,385.084c-11.946,0-21.626-9.681-21.626-21.627
		c0-11.946,9.681-21.626,21.626-21.626c11.942,0,21.622,9.681,21.622,21.626C236.451,375.403,226.77,385.084,214.829,385.084z
		 M232.848,263.256c-11.946,0-21.627-9.69-21.627-21.635c0-11.945,9.681-21.627,21.627-21.627c11.941,0,21.622,9.682,21.622,21.627
		C254.471,253.567,244.789,263.256,232.848,263.256z M359.005,99.612c11.941,0,21.622,9.681,21.622,21.627
		c0,11.946-9.681,21.635-21.622,21.635c-11.946,0-21.627-9.69-21.627-21.635C337.379,109.292,347.06,99.612,359.005,99.612z
		 M353.958,384.366c-11.946,0-21.627-9.69-21.627-21.635c0-11.945,9.681-21.627,21.627-21.627c11.941,0,21.622,9.682,21.622,21.627
		C375.58,374.676,365.899,384.366,353.958,384.366z M364.771,258.222c-11.946,0-21.627-9.69-21.627-21.635
		c0-11.946,9.681-21.627,21.627-21.627c11.942,0,21.622,9.681,21.622,21.627C386.393,248.531,376.713,258.222,364.771,258.222z" style="fill: rgb(75, 75, 75);"></path>
</g>
</svg>
